<svg width="2318" height="1195" viewBox="0 0 2318 1195" fill="none" xmlns="http://www.w3.org/2000/svg">
<path d="M406.803 183.069C400.943 185.999 398.014 188.929 398.014 191.858C377.872 187.83 363.956 185.999 356.998 185.999C349.674 187.464 340.885 212 330.631 259.241C298.771 259.241 265.445 266.199 231.021 279.749C140.934 285.975 94.0586 294.031 90.3965 303.187V306.116C95.1572 333.582 101.017 347.132 107.975 347.132C117.13 375.696 122.989 391.443 125.553 394.007V402.796L128.482 408.655H125.553L128.482 414.515C199.894 414.515 253.36 406.824 289.615 391.077C289.615 405.359 283.756 428.797 272.037 461.39C225.162 579.676 198.795 649.988 192.936 672.327H198.795V669.397C232.853 593.226 256.29 535.73 269.107 496.546H272.037V499.476C215.274 649.256 184.146 737.146 178.287 763.147V766.077H184.146L280.826 517.054C302.433 437.952 317.813 395.105 327.701 388.147C304.264 455.164 288.517 503.87 280.826 534.632C261.417 580.408 248.6 615.564 242.74 640.101H245.67C249.698 640.101 251.529 637.171 251.529 631.312H254.459V634.241L248.6 648.89L251.529 663.538H257.389C257.389 658.411 268.009 630.945 289.615 581.507H292.545V584.437C290.714 587.732 289.615 591.761 289.615 596.155C235.05 738.611 207.584 818.445 207.584 836.39L210.514 842.249C206.485 862.024 204.654 873.743 204.654 877.405H210.514L257.389 736.78H260.318V739.71C260.318 744.471 251.529 771.937 233.951 821.741H236.881C243.106 819.91 250.797 802.332 260.318 769.007H263.248V771.937L248.6 824.671H254.459L274.967 769.007H277.896V774.866C272.037 788.782 269.107 796.473 269.107 798.304H272.037C279.361 793.543 289.249 769.007 301.334 725.062V722.132H295.475C295.475 725.062 291.446 738.611 283.756 763.147H280.826V757.288C292.545 730.921 298.404 711.512 298.404 698.694L304.264 701.624C304.264 703.455 303.165 706.385 301.334 710.413V713.343H304.264C308.658 713.343 312.687 704.554 315.982 686.976C382.267 514.856 415.592 425.867 415.592 420.374C421.451 381.189 436.1 361.78 459.537 361.78V355.921H436.1V350.062C525.821 339.441 570.865 330.652 570.865 323.694V320.765C509.708 324.793 468.692 330.652 447.818 338.343H444.889L453.678 323.694H450.748C450.748 319.3 451.847 315.271 453.678 311.976C465.396 308.68 471.256 305.75 471.256 303.187V300.257C469.425 300.257 466.495 301.355 462.467 303.187H456.607C456.607 298.792 461.368 295.862 471.256 294.397L550.357 276.819L547.428 270.96C559.146 270.96 574.894 268.03 594.303 262.171V256.312H585.514C580.753 256.312 571.964 254.48 559.146 250.452C559.146 258.143 554.386 262.171 544.498 262.171V259.241C542.667 259.241 539.737 260.34 535.709 262.171C526.92 258.143 518.131 256.312 509.342 256.312V253.382L550.357 241.663L547.428 235.804C501.651 241.663 477.115 246.424 474.186 250.452C474.186 248.621 472.354 247.522 468.326 247.522V244.593C489.566 240.564 503.116 238.733 509.342 238.733V232.874H503.482C489.566 232.874 478.946 234.705 471.256 238.733C471.256 236.902 470.157 235.804 468.326 235.804L474.186 197.718L471.256 191.858H474.186C474.186 187.83 468.326 184.9 456.607 183.069C437.198 183.069 422.55 184.9 412.662 188.929C412.662 185.633 410.831 183.436 406.803 183.069ZM553.287 241.663H565.006V235.804H553.287V241.663ZM482.975 270.96V273.89H474.186V270.96H482.975ZM523.99 270.96V273.89H518.131V270.96H523.99ZM301.334 273.89V276.819H295.475V273.89H301.334ZM318.912 288.538V291.468H310.123V288.538H318.912ZM280.826 294.397V297.327H272.037V294.397H280.826ZM506.412 300.257H518.131V294.397H506.412V300.257ZM494.693 297.327C493.229 297.327 487.369 298.426 477.115 300.257V306.116H480.045L494.693 303.187V297.327ZM480.045 317.835V323.694L500.553 320.765V314.905L480.045 317.835ZM310.123 320.765H315.982V323.694C314.151 323.694 311.222 324.793 307.193 326.624H295.475V323.694L310.123 320.765ZM462.467 317.835C459.171 317.835 457.34 319.666 456.607 323.694H468.326V317.835H462.467ZM248.6 335.413V338.343H242.74V335.413H248.6ZM588.443 335.413C551.456 343.104 526.92 347.132 515.201 347.132H512.271V352.991C525.455 352.991 550.724 348.963 588.443 341.272V335.413ZM307.193 344.202V347.132H301.334V344.202H307.193ZM295.475 347.132V350.062H289.615V347.132H295.475ZM491.764 355.921H503.482V350.062H491.764V355.921ZM274.967 361.78C283.39 361.78 291.446 359.949 298.404 355.921C302.433 355.921 304.264 357.752 304.264 361.78L289.615 364.71H274.967V361.78ZM239.811 358.851H251.529V361.78C243.473 361.78 235.782 362.879 228.092 364.71H222.232V361.78L239.811 358.851ZM257.389 367.64V370.569H251.529V367.64H257.389ZM245.67 370.569H248.6V373.499C243.106 373.499 237.247 375.33 231.021 379.358L228.092 373.499L245.67 370.569ZM289.615 379.358V382.288H280.826V379.358H289.615ZM274.967 382.288V385.218H269.107V382.288H274.967ZM248.6 388.147V391.077H236.881V388.147H248.6ZM233.951 391.077V394.007H228.092V391.077H233.951ZM304.264 399.866V405.726H301.334V399.866H304.264ZM377.506 446.741V452.601H374.576V446.741H377.506ZM318.912 449.671V455.53H315.982V449.671H318.912ZM336.49 461.39V464.319C336.49 467.981 333.561 478.602 327.701 496.546H324.771V493.616C330.631 477.137 333.561 466.15 333.561 461.39H336.49ZM280.826 467.249V476.038H277.896V467.249H280.826ZM277.896 478.968V484.827H274.967V478.968H277.896ZM274.967 487.757V493.616H272.037V487.757H274.967ZM321.842 505.335V511.194H318.912V505.335H321.842ZM324.771 558.069V563.929H321.842V558.069H324.771ZM336.49 560.999V566.858H333.561V560.999H336.49ZM272.037 575.647V581.507H269.107V575.647H272.037ZM318.912 602.015V604.944C317.813 618.494 314.884 625.452 310.123 625.452C314.151 613.001 315.982 605.311 315.982 602.015H318.912ZM263.248 604.944V610.804H260.318V604.944H263.248ZM260.318 613.733V619.593H257.389V613.733H260.318ZM257.389 622.522V628.382H254.459V622.522H257.389ZM295.475 640.101V643.03L289.615 663.538H286.686V660.608C286.686 659.51 288.517 652.552 292.545 640.101H295.475ZM321.842 648.89V654.749H318.912V648.89H321.842ZM304.264 651.819V657.679H301.334V651.819H304.264ZM239.811 651.819C235.782 651.819 225.162 681.116 207.584 739.71V742.64H210.514C229.923 694.666 239.811 665.369 239.811 654.749V651.819ZM248.6 669.397C248.6 670.496 244.571 682.215 236.881 704.554H239.811C244.571 704.554 249.698 693.934 254.459 672.327V669.397H248.6ZM228.092 736.78H233.951L236.881 716.272H231.021L228.092 736.78ZM260.318 719.202V725.062H257.389V719.202H260.318ZM198.795 757.288H204.654V754.358H198.795V757.288ZM163.639 766.077C151.188 782.19 140.567 810.389 131.412 851.038V853.968H134.342C141.666 852.137 151.554 823.938 163.639 769.007V766.077ZM213.443 766.077C213.443 770.472 212.345 774.5 210.514 777.796H213.443C217.472 777.796 219.303 775.965 219.303 771.937V766.077H213.443ZM154.85 833.46H157.779C162.54 833.46 170.23 812.952 181.217 771.937H175.357L154.85 833.46ZM204.654 795.374H210.514V792.444H204.654V795.374ZM231.021 798.304V801.233C225.162 816.614 222.232 825.403 222.232 827.601H219.303V824.671C219.303 822.474 222.232 813.685 228.092 798.304H231.021ZM248.6 833.46C245.304 833.46 243.473 835.291 242.74 839.319V842.249H248.6V833.46ZM222.232 848.108C222.232 851.404 220.401 859.095 216.373 871.546H222.232L228.092 848.108H222.232ZM236.881 862.757V865.687H242.74L245.67 851.038V848.108H239.811L236.881 862.757ZM831.974 256.312C821.354 256.312 800.846 259.241 770.45 265.101C630.191 302.82 548.16 335.779 524.356 364.71L597.599 329.554H606.388V332.483C587.711 333.582 544.498 361.048 477.481 414.515C487.369 414.515 499.82 406.824 515.567 391.077C598.331 337.977 701.969 300.989 826.114 279.749V282.679C806.705 288.538 781.07 293.299 749.942 297.327C647.403 326.258 586.979 352.625 568.302 376.429C570.499 376.429 573.429 375.33 577.091 373.499H580.021C580.021 376.429 573.062 384.119 559.513 396.937V399.866C564.273 399.866 573.795 395.838 588.81 388.147H591.739V391.077C586.979 391.077 565.738 403.895 527.286 429.163C515.201 444.91 506.412 452.601 500.919 452.601C500.919 454.432 502.018 455.53 503.849 455.53L492.13 467.249V473.108H495.06L500.919 470.179V473.108C514.469 473.108 521.427 469.08 521.427 461.39V458.46C519.596 458.46 518.497 459.559 518.497 461.39H515.567L518.497 455.53V452.601L515.567 446.741C518.497 446.741 527.286 444.91 541.935 440.882H544.864C544.864 444.91 541.935 446.741 536.075 446.741V452.601C541.568 452.601 547.428 450.77 553.653 446.741H556.583C533.146 465.418 521.427 476.404 521.427 478.968H527.286C575.626 443.812 604.923 426.233 615.177 426.233H621.036V429.163L606.388 432.093V437.952C613.712 437.586 626.529 431.727 644.474 420.374H647.403C647.403 435.755 622.135 494.349 571.231 596.155C540.104 602.747 524.356 610.438 524.356 619.593C524.356 625.452 526.188 628.382 530.216 628.382L541.935 648.89C541.935 657.312 520.328 705.286 477.481 792.444V795.374H480.411L492.13 780.726C478.58 828.699 465.763 861.658 454.044 880.335V889.124L465.763 903.772C467.96 903.772 470.89 902.674 474.552 900.843C496.158 900.843 506.778 904.871 506.778 912.562C515.201 912.562 521.793 909.632 527.286 903.772C531.314 903.772 533.146 905.604 533.146 909.632L539.005 906.702H544.864L559.513 909.632C564.273 904.871 573.062 890.955 585.88 868.616C611.881 766.443 631.29 712.977 644.474 707.483C697.208 748.499 758.731 785.486 829.044 818.812H834.903C834.903 814.051 827.945 809.29 814.396 804.163V801.233H817.325L899.356 842.249H902.286C879.947 822.107 847.721 801.6 805.606 780.726C791.324 769.373 747.379 743.006 673.771 701.624V695.765C744.449 740.809 786.197 763.147 799.747 763.147H802.677C801.578 757.654 780.338 745.936 738.224 727.991V725.062H741.153C768.619 736.78 796.817 752.527 826.114 771.937V774.866H820.255C825.016 782.557 829.044 786.585 831.974 786.585H837.833L831.974 777.796C834.171 777.796 837.101 778.895 840.763 780.726C842.96 780.726 845.89 779.627 849.552 777.796C857.608 781.824 871.158 790.613 890.567 804.163H896.427V798.304C891.666 798.304 873.355 787.684 840.763 766.077V763.147H843.692C889.835 785.853 914.371 798.67 916.935 801.233H922.794V795.374C929.02 799.402 934.146 801.233 937.442 801.233V804.163H934.513L928.653 801.233H922.794C922.794 804.529 929.752 810.389 943.302 818.812L949.161 815.882C949.161 814.051 948.062 812.952 946.231 812.952C946.231 811.121 947.33 810.022 949.161 810.022C949.161 806.727 934.513 795.008 905.216 774.866H908.146C926.456 786.219 939.273 795.008 946.231 801.233H952.091C944.4 791.346 940.372 785.486 940.372 783.655C948.062 783.655 958.683 789.515 972.599 801.233H975.528V798.304C975.528 796.473 962.711 786.951 937.442 769.007L940.372 763.147C940.006 759.852 930.484 752.894 911.075 742.64H908.146V748.499H914.005V751.429H911.075C895.328 746.302 887.638 741.541 887.638 736.78C890.934 736.78 896.061 738.611 902.286 742.64H905.216V736.78H902.286C844.059 699.061 798.282 671.595 764.591 654.749V651.819C778.873 634.607 796.451 622.889 817.325 616.663C936.344 529.871 996.036 455.53 996.036 394.007V376.429C996.036 362.513 994.205 351.893 990.177 344.202C961.246 285.608 909.61 256.312 834.903 256.312H831.974ZM837.833 265.101V268.03H831.974V265.101H837.833ZM764.591 276.819V279.749H758.731V276.819H764.591ZM705.997 291.468C708.194 291.468 711.124 290.369 714.786 288.538H723.575V291.468L708.927 294.397H705.997V291.468ZM697.208 297.327V300.257H688.419V297.327H697.208ZM949.161 303.187L966.739 317.835V323.694H963.81C963.81 321.497 957.95 314.539 946.231 303.187H949.161ZM738.224 311.976V314.905H732.364V311.976H738.224ZM726.505 314.905V317.835H720.646V314.905H726.505ZM940.372 314.905C961.979 328.089 972.599 349.695 972.599 379.358C972.599 450.77 907.047 528.772 776.31 613.733H773.38V610.804C792.057 601.648 814.396 585.901 840.763 563.929C924.625 483.729 966.739 424.402 966.739 385.218C966.739 366.541 956.852 343.104 937.442 314.905H940.372ZM717.716 317.835V320.765H708.927V317.835H717.716ZM700.138 320.765H705.997V323.694C698.673 323.694 675.235 331.385 635.685 347.132H632.755V344.202L700.138 320.765ZM723.575 335.413C726.871 335.413 731.998 333.582 738.224 329.554H744.083C744.083 332.85 738.224 335.779 726.505 338.343H723.575V335.413ZM697.208 344.202V347.132H691.349V344.202H697.208ZM600.528 358.851C603.824 358.851 612.613 354.822 626.896 347.132H629.825V350.062C626.529 350.062 617.74 354.09 603.458 361.78H600.528V358.851ZM632.755 364.71C634.952 364.71 637.882 363.611 641.544 361.78H644.474V364.71C642.643 364.71 639.713 365.809 635.685 367.64H632.755V364.71ZM515.567 367.64C506.046 372.767 501.285 376.795 500.919 379.358C510.807 379.358 516.666 376.429 518.497 370.569V367.64H515.567ZM849.552 370.569H855.411V379.358H858.341C865.299 379.358 874.088 380.457 884.708 382.288H887.638C887.638 385.218 877.75 400.965 858.341 429.163C800.479 490.32 757.633 526.209 729.435 537.562H726.505C757.633 457.361 773.38 411.585 773.38 399.866C773.38 388.147 795.719 382.288 840.763 382.288H843.692V376.429H834.903V373.499L849.552 370.569ZM606.388 376.429C608.585 376.429 611.515 375.33 615.177 373.499H618.106V376.429C616.275 376.429 613.346 377.527 609.317 379.358H606.388V376.429ZM805.606 376.429V379.358H796.817V376.429H805.606ZM559.513 376.429C556.217 376.429 554.386 378.26 553.653 382.288V385.218H556.583C562.442 381.922 565.372 378.992 565.372 376.429H559.513ZM793.888 379.358V382.288H788.028V379.358H793.888ZM495.06 382.288C470.523 397.669 457.706 407.557 456.974 411.585H462.833C486.271 395.838 497.989 387.049 497.989 385.218V382.288H495.06ZM940.372 394.007V396.937C940.372 400.965 939.273 402.796 937.442 402.796C925.357 442.713 896.061 481.897 849.552 519.983V517.054C853.58 509.363 858.707 505.335 864.2 505.335C912.906 452.234 937.442 414.881 937.442 394.007H940.372ZM957.95 394.007V399.866H955.021V394.007H957.95ZM955.021 402.796V405.726C947.33 422.938 943.302 432.459 943.302 435.022H940.372V432.093C948.062 417.078 952.091 407.557 952.091 402.796H955.021ZM541.935 411.585H544.864V405.726H541.935V411.585ZM905.216 408.655V414.515H899.356V408.655H905.216ZM524.356 417.444C518.497 420.374 515.567 423.304 515.567 426.233L527.286 423.304V417.444H524.356ZM887.638 432.093C887.638 428.797 889.469 426.6 893.497 426.233V429.163C893.497 433.191 891.666 435.022 887.638 435.022V432.093ZM597.599 437.952C572.33 452.967 559.513 461.756 559.513 464.319V467.249C574.161 463.221 587.711 454.432 600.528 440.882V437.952H597.599ZM527.286 455.53H533.146V452.601H527.286V455.53ZM855.411 467.249C860.172 459.559 864.2 455.53 867.13 455.53H870.06V458.46C863.102 468.348 857.975 473.108 855.411 473.108V467.249ZM957.95 461.39V464.319C945.499 488.123 924.991 512.293 896.427 537.562V534.632C935.611 490.32 955.021 466.15 955.021 461.39H957.95ZM641.544 478.968V481.897C627.994 507.898 621.036 522.547 621.036 525.843H618.106V522.913C631.656 496.912 638.614 482.264 638.614 478.968H641.544ZM667.911 481.897V484.827L662.052 502.405H659.122V499.476C659.122 498.377 660.953 492.518 664.981 481.897H667.911ZM653.263 487.757V490.687C641.544 521.082 626.896 553.309 609.317 587.366H603.458L650.333 487.757H653.263ZM878.849 519.983C874.454 528.04 864.566 535.73 849.552 543.421C867.13 529.871 875.919 522.181 875.919 519.983H878.849ZM597.599 569.788V572.718C595.768 576.38 594.669 579.31 594.669 581.507H591.739V578.577C593.57 574.549 594.669 571.619 594.669 569.788H597.599ZM773.38 578.577V581.507H767.521V578.577H773.38ZM849.552 578.577L846.622 584.437H843.692L846.622 578.577H849.552ZM735.294 622.522V625.452H729.435V622.522H735.294ZM738.224 634.241C738.224 630.945 740.055 628.748 744.083 628.382H747.013C747.013 632.41 745.182 634.241 741.153 634.241H738.224ZM662.052 707.483C665.714 707.483 679.264 715.174 703.067 730.921V733.851H700.138C681.461 725.794 669.01 717.005 662.052 707.483ZM755.802 710.413C757.267 710.413 767.154 715.174 785.099 725.062V727.991H782.169C767.154 718.104 757.267 713.343 752.872 713.343V710.413H755.802ZM820.255 713.343V719.202C816.959 719.202 815.128 717.371 814.396 713.343H820.255ZM840.763 725.062C844.791 725.062 846.622 726.893 846.622 730.921H843.692C840.396 730.921 838.565 729.09 837.833 725.062H840.763ZM864.2 748.499V751.429H858.341V748.499H864.2ZM559.513 754.358V757.288C557.682 760.95 556.583 763.88 556.583 766.077H553.653V763.147C555.484 759.119 556.583 756.189 556.583 754.358H559.513ZM738.224 754.358C759.83 762.049 770.45 767.908 770.45 771.937C766.788 771.937 755.069 767.176 735.294 757.288V754.358H738.224ZM802.677 763.147C802.677 767.176 804.508 769.007 808.536 769.007H811.466C811.466 765.711 809.635 763.514 805.606 763.147H802.677ZM811.466 769.007C811.466 773.035 813.297 774.866 817.325 774.866H820.255C820.255 771.57 818.424 769.373 814.396 769.007H811.466ZM925.724 774.866C929.752 776.697 932.682 777.796 934.513 777.796V780.726H931.583C928.287 778.895 924.259 777.796 919.864 777.796V774.866H925.724ZM846.622 786.585C850.65 786.585 852.481 784.754 852.481 780.726H846.622V786.585ZM849.552 792.444C849.918 795.008 854.679 799.036 864.2 804.163H867.13C862.369 796.473 858.707 792.444 855.411 792.444H849.552ZM870.06 810.022H878.849C878.849 806.727 877.018 804.529 872.989 804.163H870.06V810.022ZM955.021 804.163C956.119 808.191 960.88 811.854 969.669 815.882V812.952C966.739 807.093 963.81 804.163 960.88 804.163H955.021ZM905.216 812.952H911.075V807.093H905.216V812.952ZM952.091 812.952C953.189 816.98 957.95 820.643 966.739 824.671H972.599C971.866 820.643 967.105 816.614 957.95 812.952H952.091ZM975.528 827.601C975.528 831.629 977.359 833.46 981.388 833.46H984.317V830.53C984.317 827.234 982.486 825.037 978.458 824.671H975.528V827.601ZM861.271 836.39C862.369 840.418 867.13 844.08 875.919 848.108H878.849V842.249C875.553 842.249 870.426 840.418 864.2 836.39H861.271ZM459.903 848.108C449.283 859.461 443.424 871.18 442.325 883.265H448.185C448.185 878.504 452.213 868.982 459.903 853.968V848.108ZM881.778 848.108C881.778 851.771 897.525 863.489 928.653 883.265H931.583V880.335C923.16 868.25 907.779 857.63 884.708 848.108H881.778ZM908.146 851.038H914.005V848.108H908.146V851.038ZM916.935 853.968C921.695 861.658 925.724 865.687 928.653 865.687H931.583V862.757C931.583 859.827 927.555 856.897 919.864 853.968H916.935ZM1405.46 224.451H1411.32C1411.32 221.155 1409.49 218.958 1405.46 218.592V224.451ZM1364.44 233.24C1364.08 243.494 1347.6 279.749 1314.64 341.639H1308.78V332.85H1302.92C1300.36 352.625 1283.51 381.922 1253.12 420.74C1244.33 455.53 1236.64 476.771 1229.68 485.193C1213.2 526.575 1189.03 569.422 1156.44 614.1C1156.44 578.211 1175.85 512.659 1215.03 417.811C1223.09 358.851 1231.88 312.708 1241.4 280.115V277.186C1241.4 267.298 1224.92 261.438 1191.59 259.607C1186.1 264.734 1180.24 268.763 1174.01 271.326C1169.25 263.636 1165.23 259.607 1162.3 259.607L1147.65 271.326L1133 262.537C1127.14 262.537 1124.21 264.368 1124.21 268.396C1119.08 268.396 1112.12 265.467 1103.7 259.607H1097.84V265.467C1084.29 297.693 1077.33 316.37 1077.33 321.131C1024.6 514.49 998.233 637.537 998.233 690.271C1000.06 703.821 1001.16 714.441 1001.16 722.498C1027.9 802.698 1069.64 842.615 1127.14 842.615H1130.07C1172.18 842.615 1210.27 816.248 1244.33 763.514C1248.72 749.964 1256.41 738.245 1267.76 728.357C1298.16 669.397 1322.7 626.551 1341.01 599.451C1376.9 506.067 1406.19 439.417 1428.9 400.232V397.303H1420.11C1410.59 416.346 1400.7 432.093 1390.81 444.178L1393.74 450.037C1381.29 462.854 1368.47 489.222 1355.66 529.139H1352.73V523.279C1404.36 416.712 1441.35 334.681 1464.05 277.186H1455.26L1452.33 288.904C1431.83 322.229 1398.5 384.852 1352.73 476.404C1331.85 528.772 1320.13 555.14 1317.57 555.506C1317.57 551.111 1324.53 529.505 1338.08 491.053C1362.25 444.178 1377.99 410.853 1384.95 391.443H1379.09L1352.73 450.037H1349.8V447.107C1363.35 410.12 1373.23 391.443 1379.09 391.443C1379.09 388.147 1377.26 385.95 1373.23 385.584V376.795C1390.81 339.808 1399.6 318.201 1399.6 312.342H1393.74C1391.91 325.892 1388.98 332.85 1384.95 332.85C1353.46 399.5 1335.88 433.558 1332.22 435.389L1402.53 271.326L1399.6 256.678V253.748L1405.46 256.678H1408.39V250.818H1405.46V242.029C1405.46 238.733 1403.63 236.536 1399.6 236.17H1396.67C1396.67 237.269 1383.85 265.467 1358.58 321.131H1355.66V318.201L1358.58 306.482C1372.13 283.411 1379.09 268.763 1379.09 262.537H1373.23C1373.23 269.495 1369.21 274.622 1361.51 277.186C1357.85 294.764 1353.82 303.553 1349.8 303.553C1349.8 286.707 1357.49 265.101 1373.23 239.1V233.24H1364.44ZM1382.02 247.889H1387.88V242.029H1382.02V247.889ZM1384.95 283.045C1384.95 273.157 1387.88 267.298 1393.74 265.467H1396.67L1387.88 277.186L1390.81 283.045H1384.95ZM1338.08 271.326C1335.51 271.326 1327.46 284.144 1314.64 309.412V315.271C1321.96 315.271 1330.75 300.623 1341.01 271.326H1338.08ZM1481.63 271.326C1472.84 294.397 1462.96 314.905 1452.33 332.85V335.779H1455.26C1459.29 335.413 1470.28 314.905 1487.49 274.256V271.326H1481.63ZM1434.76 285.975H1440.62V283.045H1434.76V285.975ZM1408.39 294.764C1405.09 294.764 1402.9 296.595 1402.53 300.623H1405.46C1409.49 300.623 1411.32 298.792 1411.32 294.764H1408.39ZM1425.97 300.623H1431.83V297.693H1425.97V300.623ZM1420.11 315.271H1425.97V312.342H1420.11V315.271ZM1308.78 326.99H1314.64V321.131H1308.78V326.99ZM1408.39 338.709H1414.25V332.85H1408.39V338.709ZM1425.97 385.584V391.443H1428.9C1434.39 391.077 1443.18 376.429 1455.26 347.498L1452.33 341.639L1425.97 385.584ZM1402.53 350.428C1399.23 350.428 1397.04 352.259 1396.67 356.287V362.146H1402.53C1402.53 359.949 1403.63 357.02 1405.46 353.357V350.428H1402.53ZM1332.22 370.936V373.865C1330.39 377.527 1329.29 380.457 1329.29 382.654H1326.36V379.725C1328.19 375.696 1329.29 372.767 1329.29 370.936H1332.22ZM1387.88 376.795H1393.74V370.936H1387.88V376.795ZM1299.99 406.092C1304.39 394.373 1308.41 388.514 1311.71 388.514L1305.85 406.092H1299.99ZM1068.55 423.67V429.529H1065.62V423.67H1068.55ZM1094.91 452.967V455.896C1094.91 458.826 1091.98 470.545 1086.12 491.053H1083.19V488.123C1083.19 486.292 1086.12 474.573 1091.98 452.967H1094.91ZM1317.57 461.756C1317.57 458.46 1319.4 456.263 1323.43 455.896V458.826C1323.43 462.854 1321.6 464.686 1317.57 464.686V461.756ZM1077.33 458.826V461.756C1052.07 582.239 1039.25 660.242 1039.25 696.131C1048.4 764.612 1079.9 798.67 1133 798.67C1152.41 795.374 1162.3 791.346 1162.3 786.951C1148.38 788.782 1140.69 789.881 1138.86 789.881H1130.07V786.951C1156.07 786.951 1175.48 774.134 1188.66 748.865V745.936H1182.8L1188.66 734.217V728.357C1165.23 755.823 1146.55 769.373 1133 769.373C1128.24 769.373 1119.45 767.542 1106.63 763.514V760.584H1109.56L1124.21 763.514C1148.75 763.514 1175.11 738.245 1203.31 687.342C1203.31 696.863 1200.38 706.751 1194.52 716.639V722.498C1204.41 713.343 1210.27 705.286 1212.1 699.061C1213.93 699.061 1215.03 700.159 1215.03 701.99C1219.42 701.99 1223.45 700.892 1226.75 699.061L1241.4 704.92V707.85C1206.24 776.331 1172.18 810.389 1138.86 810.389C1124.94 810.389 1114.32 808.558 1106.63 804.529C1057.93 785.486 1033.39 752.161 1033.39 704.92V701.99C1033.39 627.649 1046.94 546.717 1074.41 458.826H1077.33ZM1053.9 473.475V476.404C1048.04 508.631 1042.18 532.068 1036.32 546.717H1033.39V543.787C1038.88 514.124 1044.74 490.687 1050.97 473.475H1053.9ZM1302.92 493.982V496.912C1301.09 500.208 1299.99 504.236 1299.99 508.631H1297.06V502.771C1298.89 498.743 1299.99 495.813 1299.99 493.982H1302.92ZM1130.07 578.943V584.803H1127.14V578.943H1130.07ZM1062.69 584.803V590.662L1059.76 608.24H1056.83V602.381L1059.76 584.803H1062.69ZM1127.14 587.732V602.381H1124.21V587.732H1127.14ZM1083.19 608.24V625.818L1074.41 701.99L1077.33 716.639V719.568H1074.41C1074.41 717.737 1073.31 710.047 1071.48 696.131C1071.48 683.313 1074.41 654.017 1080.26 608.24H1083.19ZM1021.67 628.748V631.678C1019.84 660.242 1018.74 685.511 1018.74 707.85H1015.81C1015.81 690.638 1014.71 678.919 1012.88 672.693C1013.98 667.933 1016.18 653.284 1018.74 628.748H1021.67ZM1112.49 663.904C1112.49 669.764 1113.59 676.722 1115.42 684.412V687.342L1109.56 684.412V663.904H1112.49ZM1162.3 687.342V693.201H1159.37V687.342H1162.3ZM1112.49 699.061C1112.49 703.455 1113.59 707.483 1115.42 710.779V713.709H1112.49C1112.49 711.512 1111.39 708.582 1109.56 704.92V699.061H1112.49ZM1194.52 801.6C1233.71 741.541 1256.05 710.413 1261.91 707.85C1261.91 727.259 1240.3 758.387 1197.45 801.6H1194.52ZM1021.67 710.779V716.639H1018.74V710.779H1021.67ZM1150.58 719.568C1150.58 716.272 1152.41 714.075 1156.44 713.709H1159.37C1156.07 719.568 1153.14 722.498 1150.58 722.498V719.568ZM1220.89 713.709C1217.59 713.709 1212.83 720.667 1206.24 734.217V740.076C1212.47 737.513 1218.33 729.456 1223.82 716.639V713.709H1220.89ZM1021.67 728.357C1042.18 788.782 1071.48 819.178 1109.56 819.178V822.107L1091.98 825.037L1089.05 819.178C1066.35 819.178 1042.91 791.712 1018.74 737.146V728.357H1021.67ZM1194.52 737.146H1200.38C1200.38 733.851 1198.55 731.653 1194.52 731.287V737.146ZM1197.45 745.936C1193.42 746.668 1189.4 751.429 1185.73 760.584V763.514H1188.66C1192.69 762.415 1196.35 757.654 1200.38 748.865C1198.55 748.865 1197.45 747.767 1197.45 745.936ZM1179.87 769.373C1168.16 778.528 1162.3 784.388 1162.3 786.951H1168.16C1178.04 779.993 1182.8 774.866 1182.8 772.303V769.373H1179.87ZM1150.58 822.107V825.037H1141.79V822.107H1150.58ZM1684.15 265.101C1537.66 325.892 1464.42 391.443 1464.42 461.39C1464.42 519.251 1490.79 559.168 1543.52 581.507H1549.38C1513.13 558.069 1489.69 529.871 1479.07 496.546V484.827H1482C1482 526.209 1515.32 558.436 1581.61 581.507V584.437C1575.02 584.437 1570.25 585.535 1566.96 587.366C1566.96 585.535 1565.86 584.437 1564.03 584.437H1561.1V590.296C1622.99 603.846 1661.81 615.564 1678.29 625.452C1673.53 632.41 1667.67 643.396 1660.71 657.679C1660.71 676.355 1610.9 701.624 1511.29 733.851V739.71C1523.01 739.71 1543.52 734.949 1572.82 725.062H1575.75V727.991C1538.03 745.569 1509.46 754.358 1490.79 754.358C1398.87 788.05 1353.09 807.459 1353.09 812.952H1364.81C1448.31 777.796 1501.04 760.218 1523.01 760.218C1594.42 743.738 1647.16 716.272 1681.22 678.187L1704.65 634.241C1704.65 653.65 1696.96 671.961 1681.22 689.905V695.765H1684.15C1688.91 695.765 1693.67 688.807 1698.79 675.257H1701.72V681.116C1680.12 711.146 1651.92 731.653 1616.76 742.64H1613.83C1613.83 738.245 1618.59 735.315 1628.48 733.851V727.991C1625.92 727.991 1602.48 736.78 1558.17 754.358V760.218H1564.03V763.147C1560 763.147 1553.41 766.077 1543.52 771.937L1546.45 777.796C1515.32 784.754 1499.58 790.613 1499.58 795.374C1525.58 795.374 1557.8 786.585 1596.26 769.007H1599.19L1590.4 780.726C1491.89 803.797 1425.6 827.234 1391.18 851.038L1394.11 856.897C1392.28 856.897 1389.35 857.996 1385.32 859.827L1379.46 856.897C1365.91 863.855 1358.95 868.982 1358.95 871.546V877.405H1370.67V880.335H1364.81V883.265H1367.74L1388.25 877.405C1391.54 867.518 1397.4 861.658 1405.83 859.827C1405.83 857.996 1404.73 856.897 1402.9 856.897C1402.9 853.602 1404.73 851.404 1408.76 851.038H1411.69L1408.76 856.897C1412.05 856.897 1419.74 855.066 1432.19 851.038H1435.12V853.968C1433.29 853.968 1430.36 855.066 1426.33 856.897L1429.26 862.757L1446.84 859.827C1459.66 849.939 1468.45 845.179 1473.21 845.179V851.038C1425.97 868.25 1397.77 881.8 1388.25 892.054H1391.18C1456 866.785 1494.08 853.968 1505.44 853.968H1508.37V856.897C1502.51 856.897 1483.1 862.757 1449.77 874.476V880.335H1452.7C1462.96 880.335 1483.46 873.377 1514.22 859.827V856.897L1511.29 851.038C1518.62 851.038 1530.34 847.01 1546.45 839.319H1549.38V842.249C1539.49 843.714 1534.73 846.644 1534.73 851.038C1557.07 851.038 1589.3 841.15 1631.41 821.741C1744.57 779.627 1801.33 712.244 1801.33 619.593C1801.33 565.027 1770.94 523.279 1710.51 493.616C1664.74 487.391 1627.75 476.404 1599.19 461.39C1628.85 425.867 1675.72 399.5 1739.81 382.288C1800.24 368.006 1830.63 358.118 1830.63 352.991V341.272C1830.63 337.244 1827.7 335.413 1821.84 335.413C1818.91 320.032 1811.22 306.482 1798.4 294.397C1792.91 276.819 1786.32 268.03 1777.9 268.03V265.101L1780.83 250.452C1779 250.452 1777.9 249.354 1777.9 247.522L1684.15 265.101ZM1669.5 285.608V288.538H1663.64V285.608H1669.5ZM1657.78 309.046C1657.78 305.75 1659.61 303.553 1663.64 303.187V309.046H1657.78ZM1587.47 326.624C1587.47 322.596 1598.09 315.638 1619.69 306.116H1622.62V309.046C1617.86 309.046 1606.14 314.905 1587.47 326.624ZM1637.27 317.835V320.765H1631.41V317.835H1637.27ZM1669.5 317.835C1669.5 321.131 1660.71 326.258 1643.13 332.483H1640.2V329.554L1669.5 317.835ZM1490.79 458.46C1490.79 417.078 1534.73 372.4 1622.62 323.694H1625.55V326.624C1589.3 339.808 1551.21 373.133 1511.29 426.233V432.093C1527.77 409.754 1549.01 388.514 1575.75 367.64H1581.61V370.569H1578.68C1531.8 407.923 1508.37 441.98 1508.37 473.108H1505.44V461.39H1499.58C1499.58 469.08 1501.41 481.897 1505.44 499.476H1511.29C1511.29 497.278 1510.2 494.349 1508.37 490.687V484.827C1510.93 485.193 1517.89 495.813 1528.87 517.054H1537.66L1543.52 519.983H1549.38C1539.49 510.096 1531.44 495.447 1525.94 476.038V473.108H1528.87V476.038C1529.97 490.687 1545.72 509.363 1575.75 531.702H1566.96C1566.96 537.562 1570.99 540.491 1578.68 540.491V543.421C1572.82 543.421 1569.89 545.252 1569.89 549.28C1565.49 549.28 1555.61 544.52 1540.59 534.632H1537.66C1544.25 544.52 1557.8 553.309 1578.68 560.999V563.929H1569.89C1517.15 545.618 1490.79 513.392 1490.79 467.249V458.46ZM1523.01 376.429V382.288H1520.08V376.429H1523.01ZM1581.61 391.077L1543.52 432.093H1540.59C1540.59 428.064 1553.41 414.148 1578.68 391.077H1581.61ZM1590.4 426.233V429.163H1584.54V426.233H1590.4ZM1511.29 432.093C1505.44 433.191 1502.51 441.248 1502.51 455.53H1508.37C1508.37 449.671 1509.46 442.713 1511.29 435.022V432.093ZM1528.87 455.53V458.46L1525.94 470.179H1523.01V467.249L1525.94 455.53H1528.87ZM1479.07 464.319V470.179H1476.14V464.319H1479.07ZM1479.07 473.108V478.968H1476.14V473.108H1479.07ZM1564.03 473.108V478.968H1561.1V473.108H1564.03ZM1523.01 519.983C1523.01 524.012 1524.84 525.843 1528.87 525.843V519.983H1523.01ZM1695.87 602.015C1699.16 602.015 1703.92 609.705 1710.51 625.452L1704.65 628.382C1704.65 619.959 1701.72 611.902 1695.87 604.944V602.015ZM1690.01 613.733V619.593C1686.71 619.593 1684.88 617.762 1684.15 613.733H1690.01ZM1687.08 634.241C1687.08 638.27 1685.25 640.101 1681.22 640.101V634.241H1687.08ZM1707.58 663.538V669.397H1704.65V663.538H1707.58ZM1763.25 669.397V672.327L1760.32 686.976H1757.39V684.046L1760.32 669.397H1763.25ZM1663.64 675.257H1666.57C1652.29 691.37 1634.71 703.089 1613.83 710.413H1610.9V707.483L1663.64 675.257ZM1651.92 739.71C1668.03 736.78 1691.47 718.104 1722.23 684.046C1722.23 699.427 1699.89 718.836 1654.85 742.64H1651.92V739.71ZM1675.36 695.765C1669.5 698.694 1666.57 701.624 1666.57 704.554V707.483H1669.5L1678.29 701.624L1675.36 695.765ZM1587.47 719.202C1587.47 715.906 1593.33 712.977 1605.04 710.413H1607.97V713.343C1604.31 713.343 1598.45 715.174 1590.4 719.202H1587.47ZM1646.06 719.202H1651.92V716.272H1646.06V719.202ZM1713.44 742.64C1716.74 736.78 1719.67 733.851 1722.23 733.851V742.64H1713.44ZM1502.51 736.78C1421.21 762.049 1362.61 783.655 1326.72 801.233V807.093C1341.37 807.093 1364.81 797.205 1397.04 777.796C1463.32 759.119 1498.48 746.302 1502.51 739.71V736.78ZM1666.57 769.007C1671.33 769.007 1679.02 764.979 1690.01 757.288V766.077L1669.5 771.937H1666.57V769.007ZM1525.94 769.007H1531.8V766.077H1525.94V769.007ZM1669.5 789.515C1671.7 789.515 1674.62 788.416 1678.29 786.585H1681.22V789.515C1679.39 789.515 1676.46 790.613 1672.43 792.444H1669.5V789.515ZM1458.56 792.444H1461.49V786.585H1458.56V792.444ZM1449.77 789.515C1445.01 793.543 1441.35 795.374 1438.05 795.374V798.304H1446.84L1452.7 795.374L1449.77 789.515ZM1596.26 807.093C1598.82 804.529 1607.61 799.769 1622.62 792.444H1625.55C1625.55 797.938 1616.76 802.698 1599.19 807.093H1596.26ZM1496.65 792.444C1494.08 792.444 1483.46 796.473 1464.42 804.163V810.022C1467.72 810.022 1479.43 805.994 1499.58 798.304L1496.65 792.444ZM1566.96 807.093V810.022C1562.56 810.022 1558.54 811.121 1555.24 812.952V807.093H1566.96ZM1446.84 810.022C1425.24 816.248 1414.62 821.375 1414.62 824.671V827.601L1449.77 815.882L1446.84 810.022ZM1549.38 818.812V821.741H1543.52V818.812H1549.38ZM1405.83 824.671C1402.53 824.671 1400.7 826.502 1399.97 830.53V833.46H1402.9C1406.92 833.46 1408.76 831.629 1408.76 827.601V824.671H1405.83ZM1590.4 827.601V830.53H1584.54V827.601H1590.4ZM1493.72 830.53V833.46H1487.86V830.53H1493.72ZM1420.47 856.897C1414.62 859.827 1411.69 862.757 1411.69 865.687V868.616C1419.38 865.687 1423.4 862.757 1423.4 859.827V856.897H1420.47ZM1335.51 883.265C1335.51 887.293 1337.34 889.124 1341.37 889.124L1347.23 886.194C1347.23 882.898 1345.4 880.701 1341.37 880.335L1335.51 883.265ZM1438.05 886.194H1440.98V880.335H1438.05V886.194ZM2127.99 183.069C2122.13 185.999 2119.21 188.929 2119.21 191.858C2099.06 187.83 2085.15 185.999 2078.19 185.999C2070.87 187.464 2062.08 212 2051.82 259.241C2019.96 259.241 1986.64 266.199 1952.21 279.749C1862.12 285.975 1815.25 294.031 1811.59 303.187V306.116C1816.35 333.582 1822.21 347.132 1829.17 347.132C1838.32 375.696 1844.18 391.443 1846.74 394.007V402.796L1849.67 408.655H1846.74L1849.67 414.515C1921.08 414.515 1974.55 406.824 2010.81 391.077C2010.81 405.359 2004.95 428.797 1993.23 461.39C1946.35 579.676 1919.99 649.988 1914.13 672.327H1919.99V669.397C1954.04 593.226 1977.48 535.73 1990.3 496.546H1993.23V499.476C1936.47 649.256 1905.34 737.146 1899.48 763.147V766.077H1905.34L2002.02 517.054C2023.62 437.952 2039 395.105 2048.89 388.147C2025.46 455.164 2009.71 503.87 2002.02 534.632C1982.61 580.408 1969.79 615.564 1963.93 640.101H1966.86C1970.89 640.101 1972.72 637.171 1972.72 631.312H1975.65V634.241L1969.79 648.89L1972.72 663.538H1978.58C1978.58 658.411 1989.2 630.945 2010.81 581.507H2013.74V584.437C2011.91 587.732 2010.81 591.761 2010.81 596.155C1956.24 738.611 1928.78 818.445 1928.78 836.39L1931.71 842.249C1927.68 862.024 1925.85 873.743 1925.85 877.405H1931.71L1978.58 736.78H1981.51V739.71C1981.51 744.471 1972.72 771.937 1955.14 821.741H1958.07C1964.3 819.91 1971.99 802.332 1981.51 769.007H1984.44V771.937L1969.79 824.671H1975.65L1996.16 769.007H1999.09V774.866C1993.23 788.782 1990.3 796.473 1990.3 798.304H1993.23C2000.55 793.543 2010.44 769.007 2022.53 725.062V722.132H2016.67C2016.67 725.062 2012.64 738.611 2004.95 763.147H2002.02V757.288C2013.74 730.921 2019.6 711.512 2019.6 698.694L2025.46 701.624C2025.46 703.455 2024.36 706.385 2022.53 710.413V713.343H2025.46C2029.85 713.343 2033.88 704.554 2037.17 686.976C2103.46 514.856 2136.78 425.867 2136.78 420.374C2142.64 381.189 2157.29 361.78 2180.73 361.78V355.921H2157.29V350.062C2247.01 339.441 2292.06 330.652 2292.06 323.694V320.765C2230.9 324.793 2189.88 330.652 2169.01 338.343H2166.08L2174.87 323.694H2171.94C2171.94 319.3 2173.04 315.271 2174.87 311.976C2186.59 308.68 2192.45 305.75 2192.45 303.187V300.257C2190.62 300.257 2187.69 301.355 2183.66 303.187H2177.8C2177.8 298.792 2182.56 295.862 2192.45 294.397L2271.55 276.819L2268.62 270.96C2280.34 270.96 2296.08 268.03 2315.49 262.171V256.312H2306.71C2301.94 256.312 2293.16 254.48 2280.34 250.452C2280.34 258.143 2275.58 262.171 2265.69 262.171V259.241C2263.86 259.241 2260.93 260.34 2256.9 262.171C2248.11 258.143 2239.32 256.312 2230.53 256.312V253.382L2271.55 241.663L2268.62 235.804C2222.84 241.663 2198.31 246.424 2195.38 250.452C2195.38 248.621 2193.55 247.522 2189.52 247.522V244.593C2210.76 240.564 2224.31 238.733 2230.53 238.733V232.874H2224.67C2210.76 232.874 2200.14 234.705 2192.45 238.733C2192.45 236.902 2191.35 235.804 2189.52 235.804L2195.38 197.718L2192.45 191.858H2195.38C2195.38 187.83 2189.52 184.9 2177.8 183.069C2158.39 183.069 2143.74 184.9 2133.85 188.929C2133.85 185.633 2132.02 183.436 2127.99 183.069ZM2274.48 241.663H2286.2V235.804H2274.48V241.663ZM2204.17 270.96V273.89H2195.38V270.96H2204.17ZM2245.18 270.96V273.89H2239.32V270.96H2245.18ZM2022.53 273.89V276.819H2016.67V273.89H2022.53ZM2040.1 288.538V291.468H2031.31V288.538H2040.1ZM2002.02 294.397V297.327H1993.23V294.397H2002.02ZM2227.6 300.257H2239.32V294.397H2227.6V300.257ZM2215.88 297.327C2214.42 297.327 2208.56 298.426 2198.31 300.257V306.116H2201.24L2215.88 303.187V297.327ZM2201.24 317.835V323.694L2221.74 320.765V314.905L2201.24 317.835ZM2031.31 320.765H2037.17V323.694C2035.34 323.694 2032.41 324.793 2028.38 326.624H2016.67V323.694L2031.31 320.765ZM2183.66 317.835C2180.36 317.835 2178.53 319.666 2177.8 323.694H2189.52V317.835H2183.66ZM1969.79 335.413V338.343H1963.93V335.413H1969.79ZM2309.63 335.413C2272.65 343.104 2248.11 347.132 2236.39 347.132H2233.46V352.991C2246.65 352.991 2271.92 348.963 2309.63 341.272V335.413ZM2028.38 344.202V347.132H2022.53V344.202H2028.38ZM2016.67 347.132V350.062H2010.81V347.132H2016.67ZM2212.96 355.921H2224.67V350.062H2212.96V355.921ZM1996.16 361.78C2004.58 361.78 2012.64 359.949 2019.6 355.921C2023.62 355.921 2025.46 357.752 2025.46 361.78L2010.81 364.71H1996.16V361.78ZM1961 358.851H1972.72V361.78C1964.66 361.78 1956.97 362.879 1949.28 364.71H1943.42V361.78L1961 358.851ZM1978.58 367.64V370.569H1972.72V367.64H1978.58ZM1966.86 370.569H1969.79V373.499C1964.3 373.499 1958.44 375.33 1952.21 379.358L1949.28 373.499L1966.86 370.569ZM2010.81 379.358V382.288H2002.02V379.358H2010.81ZM1996.16 382.288V385.218H1990.3V382.288H1996.16ZM1969.79 388.147V391.077H1958.07V388.147H1969.79ZM1955.14 391.077V394.007H1949.28V391.077H1955.14ZM2025.46 399.866V405.726H2022.53V399.866H2025.46ZM2098.7 446.741V452.601H2095.77V446.741H2098.7ZM2040.1 449.671V455.53H2037.17V449.671H2040.1ZM2057.68 461.39V464.319C2057.68 467.981 2054.75 478.602 2048.89 496.546H2045.96V493.616C2051.82 477.137 2054.75 466.15 2054.75 461.39H2057.68ZM2002.02 467.249V476.038H1999.09V467.249H2002.02ZM1999.09 478.968V484.827H1996.16V478.968H1999.09ZM1996.16 487.757V493.616H1993.23V487.757H1996.16ZM2043.03 505.335V511.194H2040.1V505.335H2043.03ZM2045.96 558.069V563.929H2043.03V558.069H2045.96ZM2057.68 560.999V566.858H2054.75V560.999H2057.68ZM1993.23 575.647V581.507H1990.3V575.647H1993.23ZM2040.1 602.015V604.944C2039 618.494 2036.08 625.452 2031.31 625.452C2035.34 613.001 2037.17 605.311 2037.17 602.015H2040.1ZM1984.44 604.944V610.804H1981.51V604.944H1984.44ZM1981.51 613.733V619.593H1978.58V613.733H1981.51ZM1978.58 622.522V628.382H1975.65V622.522H1978.58ZM2016.67 640.101V643.03L2010.81 663.538H2007.88V660.608C2007.88 659.51 2009.71 652.552 2013.74 640.101H2016.67ZM2043.03 648.89V654.749H2040.1V648.89H2043.03ZM2025.46 651.819V657.679H2022.53V651.819H2025.46ZM1961 651.819C1956.97 651.819 1946.35 681.116 1928.78 739.71V742.64H1931.71C1951.11 694.666 1961 665.369 1961 654.749V651.819ZM1969.79 669.397C1969.79 670.496 1965.76 682.215 1958.07 704.554H1961C1965.76 704.554 1970.89 693.934 1975.65 672.327V669.397H1969.79ZM1949.28 736.78H1955.14L1958.07 716.272H1952.21L1949.28 736.78ZM1981.51 719.202V725.062H1978.58V719.202H1981.51ZM1919.99 757.288H1925.85V754.358H1919.99V757.288ZM1884.83 766.077C1872.38 782.19 1861.76 810.389 1852.6 851.038V853.968H1855.53C1862.86 852.137 1872.75 823.938 1884.83 769.007V766.077ZM1934.63 766.077C1934.63 770.472 1933.54 774.5 1931.71 777.796H1934.63C1938.66 777.796 1940.49 775.965 1940.49 771.937V766.077H1934.63ZM1876.04 833.46H1878.97C1883.73 833.46 1891.42 812.952 1902.41 771.937H1896.55L1876.04 833.46ZM1925.85 795.374H1931.71V792.444H1925.85V795.374ZM1952.21 798.304V801.233C1946.35 816.614 1943.42 825.403 1943.42 827.601H1940.49V824.671C1940.49 822.474 1943.42 813.685 1949.28 798.304H1952.21ZM1969.79 833.46C1966.5 833.46 1964.66 835.291 1963.93 839.319V842.249H1969.79V833.46ZM1943.42 848.108C1943.42 851.404 1941.59 859.095 1937.56 871.546H1943.42L1949.28 848.108H1943.42ZM1958.07 862.757V865.687H1963.93L1966.86 851.038V848.108H1961L1958.07 862.757Z" fill="white"/>
<path d="M132.485 1114.57V1158H123.477V1051.36H159.805C170.889 1051.36 179.629 1054.19 186.025 1059.86C192.471 1065.52 195.693 1073.31 195.693 1083.22C195.693 1093.23 192.593 1100.97 186.392 1106.44C180.239 1111.86 171.304 1114.57 159.585 1114.57H132.485ZM132.485 1106.95H159.805C168.545 1106.95 175.21 1104.88 179.8 1100.72C184.39 1096.57 186.685 1090.79 186.685 1083.37C186.685 1075.99 184.39 1070.13 179.8 1065.79C175.259 1061.39 168.789 1059.15 160.391 1059.05H132.485V1106.95ZM310.502 1113.62H279.521V1158H270.438V1051.36H305.082C316.459 1051.36 325.346 1054.12 331.742 1059.64C338.139 1065.15 341.337 1072.87 341.337 1082.78C341.337 1089.62 339.335 1095.65 335.331 1100.87C331.327 1106.1 325.956 1109.71 319.218 1111.71L345.878 1157.05V1158H336.283L310.502 1113.62ZM279.521 1105.92H307.133C314.701 1105.92 320.78 1103.78 325.37 1099.48C329.96 1095.18 332.255 1089.62 332.255 1082.78C332.255 1075.26 329.862 1069.43 325.077 1065.28C320.292 1061.12 313.578 1059.05 304.936 1059.05H279.521V1105.92ZM479.51 1106.88H429.632V1150.38H486.98V1158H420.623V1051.36H486.614V1059.05H429.632V1099.26H479.51V1106.88ZM636.286 1124.75C635.065 1135.98 631.037 1144.57 624.201 1150.53C617.414 1156.49 608.356 1159.46 597.028 1159.46C589.118 1159.46 582.111 1157.49 576.008 1153.53C569.953 1149.58 565.266 1143.99 561.945 1136.76C558.625 1129.48 556.94 1121.18 556.892 1111.86V1098.01C556.892 1088.54 558.552 1080.14 561.872 1072.82C565.192 1065.5 569.953 1059.86 576.154 1055.9C582.404 1051.9 589.582 1049.89 597.688 1049.89C609.113 1049.89 618.122 1053 624.714 1059.2C631.354 1065.35 635.212 1073.87 636.286 1084.76H627.204C624.958 1066.64 615.119 1057.58 597.688 1057.58C588.02 1057.58 580.305 1061.2 574.543 1068.42C568.83 1075.65 565.974 1085.64 565.974 1098.38V1111.42C565.974 1123.72 568.757 1133.54 574.323 1140.86C579.938 1148.19 587.507 1151.85 597.028 1151.85C606.452 1151.85 613.557 1149.6 618.342 1145.11C623.127 1140.57 626.081 1133.78 627.204 1124.75H636.286ZM723.922 1158H714.913V1051.36H723.922V1158ZM868.027 1131.78C868.027 1125.87 865.952 1121.21 861.802 1117.79C857.651 1114.32 850.059 1111.05 839.023 1107.98C827.988 1104.85 819.932 1101.46 814.854 1097.79C807.627 1092.62 804.014 1085.83 804.014 1077.43C804.014 1069.28 807.358 1062.66 814.048 1057.58C820.786 1052.46 829.38 1049.89 839.829 1049.89C846.909 1049.89 853.232 1051.26 858.799 1054C864.414 1056.73 868.76 1060.54 871.836 1065.42C874.912 1070.3 876.45 1075.75 876.45 1081.75H867.368C867.368 1074.48 864.878 1068.64 859.897 1064.25C854.917 1059.81 848.228 1057.58 839.829 1057.58C831.675 1057.58 825.181 1059.42 820.347 1063.08C815.513 1066.69 813.096 1071.43 813.096 1077.29C813.096 1082.71 815.269 1087.13 819.614 1090.54C823.96 1093.96 830.918 1096.99 840.488 1099.63C850.059 1102.21 857.31 1104.92 862.241 1107.76C867.173 1110.54 870.884 1113.88 873.374 1117.79C875.864 1121.7 877.109 1126.31 877.109 1131.63C877.109 1140.03 873.74 1146.77 867.002 1151.85C860.312 1156.93 851.475 1159.46 840.488 1159.46C832.969 1159.46 826.06 1158.12 819.761 1155.44C813.511 1152.75 808.75 1148.99 805.479 1144.16C802.256 1139.32 800.645 1133.78 800.645 1127.53H809.653C809.653 1135.05 812.461 1140.98 818.076 1145.33C823.691 1149.67 831.162 1151.85 840.488 1151.85C848.789 1151.85 855.454 1150.02 860.483 1146.35C865.513 1142.69 868.027 1137.83 868.027 1131.78ZM962.328 1158H953.319V1051.36H962.328V1158ZM1124.89 1110.47C1124.89 1120.28 1123.18 1128.9 1119.76 1136.32C1116.39 1143.74 1111.56 1149.46 1105.26 1153.46C1098.96 1157.46 1091.69 1159.46 1083.44 1159.46C1070.98 1159.46 1060.93 1155.02 1053.26 1146.13C1045.59 1137.2 1041.76 1125.16 1041.76 1110.03V1099.04C1041.76 1089.32 1043.47 1080.73 1046.89 1073.26C1050.35 1065.74 1055.24 1059.98 1061.54 1055.97C1067.83 1051.92 1075.09 1049.89 1083.29 1049.89C1091.49 1049.89 1098.72 1051.87 1104.97 1055.83C1111.27 1059.78 1116.13 1065.37 1119.54 1072.6C1122.96 1079.83 1124.74 1088.2 1124.89 1097.72V1110.47ZM1115.88 1098.89C1115.88 1086.05 1112.98 1075.99 1107.17 1068.72C1101.36 1061.44 1093.4 1057.8 1083.29 1057.8C1073.38 1057.8 1065.47 1061.47 1059.56 1068.79C1053.7 1076.07 1050.77 1086.25 1050.77 1099.33V1110.47C1050.77 1123.11 1053.7 1133.15 1059.56 1140.57C1065.42 1147.94 1073.38 1151.63 1083.44 1151.63C1093.64 1151.63 1101.6 1147.99 1107.31 1140.71C1113.03 1133.39 1115.88 1123.21 1115.88 1110.17V1098.89ZM1281.74 1158H1272.73L1211.43 1066.74V1158H1202.35V1051.36H1211.43L1272.8 1142.69V1051.36H1281.74V1158ZM1463.82 1114.57V1158H1454.81V1051.36H1491.14C1502.23 1051.36 1510.97 1054.19 1517.36 1059.86C1523.81 1065.52 1527.03 1073.31 1527.03 1083.22C1527.03 1093.23 1523.93 1100.97 1517.73 1106.44C1511.58 1111.86 1502.64 1114.57 1490.92 1114.57H1463.82ZM1463.82 1106.95H1491.14C1499.88 1106.95 1506.55 1104.88 1511.14 1100.72C1515.73 1096.57 1518.02 1090.79 1518.02 1083.37C1518.02 1075.99 1515.73 1070.13 1511.14 1065.79C1506.6 1061.39 1500.13 1059.15 1491.73 1059.05H1463.82V1106.95ZM1649.46 1128.12H1601.04L1590.06 1158H1580.61L1620.97 1051.36H1629.54L1669.89 1158H1660.52L1649.46 1128.12ZM1603.83 1120.43H1646.6L1625.21 1062.35L1603.83 1120.43ZM1780.23 1113.62H1749.25V1158H1740.17V1051.36H1774.81C1786.19 1051.36 1795.08 1054.12 1801.47 1059.64C1807.87 1065.15 1811.07 1072.87 1811.07 1082.78C1811.07 1089.62 1809.07 1095.65 1805.06 1100.87C1801.06 1106.1 1795.69 1109.71 1788.95 1111.71L1815.61 1157.05V1158H1806.01L1780.23 1113.62ZM1749.25 1105.92H1776.86C1784.43 1105.92 1790.51 1103.78 1795.1 1099.48C1799.69 1095.18 1801.99 1089.62 1801.99 1082.78C1801.99 1075.26 1799.59 1069.43 1794.81 1065.28C1790.02 1061.12 1783.31 1059.05 1774.67 1059.05H1749.25V1105.92ZM1956.86 1059.05H1920.31V1158H1911.3V1059.05H1874.83V1051.36H1956.86V1059.05ZM2088.07 1131.78C2088.07 1125.87 2086 1121.21 2081.85 1117.79C2077.7 1114.32 2070.1 1111.05 2059.07 1107.98C2048.03 1104.85 2039.98 1101.46 2034.9 1097.79C2027.67 1092.62 2024.06 1085.83 2024.06 1077.43C2024.06 1069.28 2027.4 1062.66 2034.09 1057.58C2040.83 1052.46 2049.42 1049.89 2059.87 1049.89C2066.95 1049.89 2073.28 1051.26 2078.84 1054C2084.46 1056.73 2088.8 1060.54 2091.88 1065.42C2094.96 1070.3 2096.5 1075.75 2096.5 1081.75H2087.41C2087.41 1074.48 2084.92 1068.64 2079.94 1064.25C2074.96 1059.81 2068.27 1057.58 2059.87 1057.58C2051.72 1057.58 2045.23 1059.42 2040.39 1063.08C2035.56 1066.69 2033.14 1071.43 2033.14 1077.29C2033.14 1082.71 2035.31 1087.13 2039.66 1090.54C2044 1093.96 2050.96 1096.99 2060.53 1099.63C2070.1 1102.21 2077.35 1104.92 2082.29 1107.76C2087.22 1110.54 2090.93 1113.88 2093.42 1117.79C2095.91 1121.7 2097.15 1126.31 2097.15 1131.63C2097.15 1140.03 2093.79 1146.77 2087.05 1151.85C2080.36 1156.93 2071.52 1159.46 2060.53 1159.46C2053.01 1159.46 2046.1 1158.12 2039.81 1155.44C2033.56 1152.75 2028.79 1148.99 2025.52 1144.16C2022.3 1139.32 2020.69 1133.78 2020.69 1127.53H2029.7C2029.7 1135.05 2032.51 1140.98 2038.12 1145.33C2043.74 1149.67 2051.21 1151.85 2060.53 1151.85C2068.83 1151.85 2075.5 1150.02 2080.53 1146.35C2085.56 1142.69 2088.07 1137.83 2088.07 1131.78Z" fill="white"/>
</svg>
